<svg xmlns="http://www.w3.org/2000/svg" viewBox="14594.402 4044.894 68.188 21.171"><defs><style>.a,.b{fill:#1a559b;}.a{fill-rule:evenodd;}</style></defs><g transform="translate(13937 3803)"><g transform="translate(657.403 241.894)"><path class="a" d="M80.4,13.5H74.581l2.888-9.654L80.4,13.5M79.485.005c1.565,0,1.967.391,2.563,2.158l6.421,19h-5.72L81.354,16.6h-7.7l-1.388,4.567h-3.3L75.441,0Z" transform="translate(-20.28 -0.001)"/><path class="a" d="M33.194,9.314,34.96,6.68a2.5,2.5,0,0,0,.54-1.54,2.453,2.453,0,0,0-2.447-2.378H30.339V18.329h1.5c2.517,0,4.426-1.359,4.426-4.542,0-2.624-1.231-4.026-3.076-4.473M34.25,21.171H25.362V0h9.213c4.32,0,5.825,3.521,3.638,6.767L37.178,8.3C44.426,12.064,42.068,21.171,34.25,21.171Z" transform="translate(-7.458)"/><path class="a" d="M7.835,9.314,9.6,6.68a2.507,2.507,0,0,0,.54-1.54A2.454,2.454,0,0,0,7.695,2.762H4.978V18.329h1.5c2.517,0,4.426-1.359,4.426-4.542,0-2.624-1.233-4.026-3.074-4.473M8.89,21.171H0V0H9.215c4.319,0,5.825,3.521,3.637,6.767L11.817,8.3C19.064,12.064,16.707,21.171,8.89,21.171Z"/><path class="b" d="M61.447,0h3.342l-6.45,21.161-5.079,0L46.339,0,50.08,0c1.442,0,1.823.372,2.578,2.769l4,13.3L61.447,0" transform="translate(-13.626)"/></g></g></svg>